<?xml version="1.0" encoding="UTF-8"?>
<svg id="Layer_1" xmlns="http://www.w3.org/2000/svg" version="1.1" viewBox="0 0 128 128">
  <!-- Generator: Adobe Illustrator 29.7.1, SVG Export Plug-In . SVG Version: 2.1.1 Build 8)  -->
  <rect x="2" y="2" width="124" height="124" rx="14" ry="14" fill="#210d21"/>
  <g display="none">
    <line x1="108.73506" y1="2" x2="108.73506" y2="126" fill="none" stroke="#311f32" stroke-width="5"/>
    <line x1="19.56653" y1="2" x2="19.56653" y2="126" fill="none" stroke="#311f32" stroke-width="5"/>
  </g>
  <g display="none">
    <line x1="2.15081" y1="19.41571" x2="126.15081" y2="19.41575" fill="none" stroke="#311f32" stroke-width="5"/>
    <line x1="2.15078" y1="108.58425" x2="126.15078" y2="108.58429" fill="none" stroke="#311f32" stroke-width="5"/>
  </g>
  <g>
    <circle cx="64" cy="64" r="36.59868" fill="#facd00" isolation="isolate" opacity=".25"/>
    <path d="M59.94726,84.91571v-8.9428l2.36095-6.15632-1.34519-.59024-2.78647,6.23868-6.15632,6.15632-5.64844-5.64844,6.15632-6.15632,6.23868-2.77961-.59024-1.35206-6.15632,2.36095h-8.93593v-8.09862h8.93593l6.15632,2.36095.59024-1.34519-6.23868-2.78647-6.15632-6.15632,5.64844-5.64844,6.15632,6.15632,2.78647,6.23868,1.34519-.59024-2.36095-6.15632v-8.93593h8.09862v8.93593l-2.36095,6.15632,1.34519.59024,2.78647-6.23868,6.15632-6.15632,5.64844,5.64844-6.15632,6.15632-6.23868,2.78647.59024,1.34519,6.15632-2.36095h8.9428v8.09862h-8.9428l-6.15632-2.36095-.59024,1.35206,6.23868,2.77961,6.15632,6.15632-5.64844,5.64844-6.15632-6.15632-2.78647-6.23868-1.34519.59024,2.36095,6.15632v8.9428h-8.09862Z" fill="#facd00"/>
  </g>
  <rect x="2" y="2" width="124" height="124" rx="14" ry="14" fill="none" stroke="#b500e7" stroke-width="4"/>
</svg>