<?xml version="1.0" encoding="UTF-8"?>
<svg id="Layer_1" xmlns="http://www.w3.org/2000/svg" version="1.1" viewBox="0 0 128 128">
  <!-- Generator: Adobe Illustrator 29.7.1, SVG Export Plug-In . SVG Version: 2.1.1 Build 8)  -->
  <rect x="2" y="2" width="124" height="124" rx="14" ry="14" fill="#210d21" stroke="#b500e7" stroke-width="4"/>
  <g display="none">
    <path d="M22.927,80.29502v3.333c27.40467,23.836,54.80934,23.836,82.214,0v-3.333H22.927Z" fill="#fff"/>
    <path d="M22.927,80.29502l15.352,1.414c.808.06734,1.313.53866,1.515,1.414l.404,6.767,13.332,1.01.808-6.161c.13467-.74066.63967-1.24566,1.515-1.515h16.362c.87534.26934,1.38034.77434,1.515,1.515l.808,6.161,13.332-1.01.404-6.767c.202-.87534.707-1.34666,1.515-1.414l15.352-1.414v-24.846c2.02-2.626,3.90534-5.353,5.656-8.181-2.35666-3.97267-5.151-7.60867-8.383-10.908-2.89534,1.34667-5.656,2.929-8.282,4.747-2.69334-2.49133-5.656-4.646-8.888-6.464.47134-3.434.74066-6.868.808-10.302-3.97266-1.88533-8.11366-3.29933-12.423-4.242-1.75066,2.89533-3.29934,5.89167-4.646,8.989-3.29934-.47133-6.59867-.47133-9.898,0-1.34667-3.09733-2.89533-6.09367-4.646-8.989-4.30933.94267-8.45033,2.35667-12.423,4.242.06733,3.434.33667,6.868.808,10.302-3.232,1.818-6.19467,3.97267-8.888,6.464-2.626-1.818-5.38667-3.40033-8.282-4.747-3.232,3.29933-6.02633,6.93533-8.383,10.908,1.75067,2.828,3.636,5.555,5.656,8.181v24.846ZM22.927,83.62802v3.939c0,27.876,82.113,27.876,82.214,0v-3.939l-13.534,1.212-.505,6.969c-.13466.67334-.606,1.111-1.414,1.313l-16.362,1.111c-.808,0-1.34666-.37034-1.616-1.111l-1.01-6.565h-13.332l-1.01,6.565c-.26933.74066-.808,1.111-1.616,1.111l-16.362-1.111c-.808-.202-1.27933-.63966-1.414-1.313l-.505-6.969-13.534-1.212Z" fill="#478cbf"/>
    <path d="M61.105,72.92202c0,3.434,5.858,3.434,5.858,0v-8.686c0-3.434-5.858-3.434-5.858,0v8.686Z" fill="#fff"/>
    <circle cx="85.547" cy="65.44802" r="9.09" fill="#fff"/>
    <circle cx="42.521" cy="65.44802" r="9.09" fill="#fff"/>
  </g>
  <g display="none">
    <circle cx="43.329" cy="66.05402" r="6.06" fill="#414042"/>
    <circle cx="84.739" cy="66.05402" r="6.06" fill="#414042"/>
  </g>
  <g display="none">
    <line x1="108.73506" y1="2" x2="108.73506" y2="126" fill="none" stroke="#311f32" stroke-width="5"/>
    <line x1="19.56653" y1="2" x2="19.56653" y2="126" fill="none" stroke="#311f32" stroke-width="5"/>
  </g>
  <g display="none">
    <line x1="2.15081" y1="19.41571" x2="126.15081" y2="19.41575" fill="none" stroke="#311f32" stroke-width="5"/>
    <line x1="2.15078" y1="108.58425" x2="126.15078" y2="108.58429" fill="none" stroke="#311f32" stroke-width="5"/>
  </g>
  <g>
    <circle cx="64" cy="64" r="36.59868" fill="#facd00" opacity=".25"/>
    <path d="M59.94726,84.91571v-8.9428l2.36095-6.15632-1.34519-.59024-2.78647,6.23868-6.15632,6.15632-5.64844-5.64844,6.15632-6.15632,6.23868-2.77961-.59024-1.35206-6.15632,2.36095h-8.93593v-8.09862h8.93593l6.15632,2.36095.59024-1.34519-6.23868-2.78647-6.15632-6.15632,5.64844-5.64844,6.15632,6.15632,2.78647,6.23868,1.34519-.59024-2.36095-6.15632v-8.93593h8.09862v8.93593l-2.36095,6.15632,1.34519.59024,2.78647-6.23868,6.15632-6.15632,5.64844,5.64844-6.15632,6.15632-6.23868,2.78647.59024,1.34519,6.15632-2.36095h8.9428v8.09862h-8.9428l-6.15632-2.36095-.59024,1.35206,6.23868,2.77961,6.15632,6.15632-5.64844,5.64844-6.15632-6.15632-2.78647-6.23868-1.34519.59024,2.36095,6.15632v8.9428h-8.09862Z" fill="#facd00"/>
  </g>
  <rect x="2" y="2" width="124" height="124" rx="14" ry="14" fill="none" stroke="#b500e7" stroke-width="4"/>
</svg>